:version 1.10
:name ASF
:units
  mass 1
  length 1
  angle deg
:documentation
  ASF file generated by Kaydara
:root
  axis xyz
  order  tx ty tz rx ry rz
  position 0 0 0
  orientation 0 0 0
:bonedata
  begin
    id 1
    name LeftUpLegDummy
    direction 1 -2.30186e-007 -8.31532e-007
    length 2.93387
    axis 0 0 0 xyz
  end
  begin
    id 2
    name LeftUpLeg
    direction -1.82929e-007 -1 -1.48925e-009
    length 17.3336
    axis -3.48766 0.00143442 -0.000521554 xyz
    dof rx ry rz
  end
  begin
    id 3
    name LeftLeg
    direction -1.82929e-007 -1 -5.23717e-011
    length 14.9995
    axis 3.68178 -0.00654042 -0.000282425 xyz
    dof rx ry rz
  end
  begin
    id 4
    name LeftFoot
    direction 8.31532e-007 -4.54534e-011 1
    length 6.74421
    axis 1.87234e-006 4.66016e-005 -5.96866e-006 xyz
    dof rx ry rz
  end
  begin
    id 5
    name LeftToes
    direction 0.00818058 -0.00485161 0.999955
    length 3.85048
    axis 1.06247e-005 4.65869e-005 -5.96999e-006 xyz
    dof rx ry rz
  end
  begin
    id 6
    name SpineDummy
    direction -5.8607e-008 0.943407 -0.331637
    length 5.93572
    axis 0 0 0 xyz
  end
  begin
    id 7
    name Spine
    direction -1.04988e-007 0.999988 0.00495137
    length 10.1015
    axis -0.001389 0.000121417 6.61666e-006 xyz
    dof rx ry rz
  end
  begin
    id 8
    name Spine1
    direction 0 0 0
    length 0
    axis -0.001389 0.00012144 6.56766e-006 xyz
    dof rx ry rz
  end
  begin
    id 9
    name RightShoulderDummy
    direction -0.98348 0.17941 -0.0240696
    length 3.59882
    axis -0.001389 0.00012144 6.56766e-006 xyz
  end
  begin
    id 10
    name RightShoulder
    direction -0.978693 0.204882 0.0135597
    length 2.70001
    axis 0.215806 0.000203631 -0.00679732 xyz
    dof rx ry rz
  end
  begin
    id 11
    name RightArm
    direction -1 3.85509e-006 8.31394e-007
    length 10.2459
    axis -23.2009 -0.134239 -0.964098 xyz
    dof rx ry rz
  end
  begin
    id 12
    name RightForeArm
    direction -1 3.85569e-006 8.3129e-007
    length 8.16799
    axis -9.92322 0.0658061 0.17887 xyz
    dof rx ry rz
  end
  begin
    id 13
    name RightHand
    direction -0.992843 -0.0414604 0.112003
    length 5.28593
    axis -0.00960638 0.00330669 -0.185225 xyz
    dof rx ry rz
  end
  begin
    id 14
    name LeftShoulder1Dummy
    direction 0.983523 0.179172 -0.0240748
    length 3.59866
    axis -0.001389 0.00012144 6.56766e-006 xyz
  end
  begin
    id 15
    name LeftShoulder1
    direction 0.978627 0.205195 0.0135605
    length 2.70019
    axis -0.001389 0.00012144 6.57583e-006 xyz
    dof rx ry rz
  end
  begin
    id 16
    name LeftArm
    direction 1 3.51895e-006 -8.60188e-007
    length 10.2459
    axis -23.1894 0.134785 0.967513 xyz
    dof rx ry rz
  end
  begin
    id 17
    name LeftForeArm
    direction 1 3.51921e-006 -7.32029e-007
    length 8.16799
    axis -9.91835 -0.0656957 -0.177789 xyz
    dof rx ry rz
  end
  begin
    id 18
    name LeftHand
    direction 0.992938 -0.0411636 0.11126
    length 5.32135
    axis -0.00960237 -0.00340661 0.185177 xyz
    dof rx ry rz
  end
  begin
    id 19
    name HEadDummy
    direction 1.01974e-006 0.999861 -0.016675
    length 2.99946
    axis -0.001389 0.00012144 6.56766e-006 xyz
  end
  begin
    id 20
    name HEad
    direction -0.0222689 0.980941 0.193023
    length 5.12695
    axis -0.001389 0.00012144 6.56766e-006 xyz
    dof rx ry rz
  end
  begin
    id 21
    name RightUpLegDummy
    direction -1 2.30186e-007 8.31532e-007
    length 2.93387
    axis 0 0 0 xyz
  end
  begin
    id 22
    name RightUpLeg
    direction -1.82966e-007 -1 1.56832e-007
    length 17.3336
    axis -3.4909 -0.000906625 0.00028951 xyz
    dof rx ry rz
  end
  begin
    id 23
    name RightLeg
    direction -1.82786e-007 -1 -1.80317e-007
    length 14.9995
    axis 3.68513 0.0193739 -0.131021 xyz
    dof rx ry rz
  end
  begin
    id 24
    name RightFoot
    direction 8.31721e-007 -4.63324e-011 1
    length 6.74421
    axis 4.81691e-005 -0.120479 -0.188785 xyz
    dof rx ry rz
  end
  begin
    id 25
    name RightToes
    direction 0.00124746 -0.014064 0.9999
    length 3.85082
    axis 0.000481921 0.542163 -0.142575 xyz
    dof rx ry rz
  end
:hierarchy
  begin
    root LeftUpLegDummy SpineDummy RightUpLegDummy
    LeftUpLegDummy LeftUpLeg
    LeftUpLeg LeftLeg
    LeftLeg LeftFoot
    LeftFoot LeftToes
    SpineDummy Spine
    Spine Spine1
    Spine1 RightShoulderDummy LeftShoulder1Dummy HEadDummy
    RightShoulderDummy RightShoulder
    RightShoulder RightArm
    RightArm RightForeArm
    RightForeArm RightHand
    LeftShoulder1Dummy LeftShoulder1
    LeftShoulder1 LeftArm
    LeftArm LeftForeArm
    LeftForeArm LeftHand
    HEadDummy HEad
    RightUpLegDummy RightUpLeg
    RightUpLeg RightLeg
    RightLeg RightFoot
    RightFoot RightToes
  end

:SAMPLES-PER-SECOND 30
:FULLY-SPECIFIED
:DEGREES
180
root  5.7898 32.3736 -7.50687 -0.148832 -60.9988 5.84716
LeftUpLeg  -20.6655 25.1996 8.26329
LeftLeg  36.7456 8.24439 5.32838
LeftFoot  0.736641 -0.000582651 0.090627
LeftToes  -28.635 1.85109e-006 5.31342e-008
Spine  3.4831 -4.08108 3.61637
Spine1  6.59919 -8.2443 6.72243
RightShoulder  0.0409118 1.16628 7.40051
RightArm  -47.7761 -27.8195 62.1036
RightForeArm  146.713 71.7038 147.153
RightHand  3.20995 -18.2967 -19.3636
LeftShoulder1  0.0241457 -0.763948 -6.06084
LeftArm  3.93618 18.2016 -58.88
LeftForeArm  29.9544 -52.5552 -13.3438
LeftHand  0.0124226 0.920227 1.16804
HEad  -31.4868 49.5879 -32.1019
RightUpLeg  -13.0358 7.33161 -20.188
RightLeg  25.1844 -5.90288 -2.32333
RightFoot  -2.3952 -0.00129253 0.315814
RightToes  -47.6259 -0.282085 -0.354025
181
root  6.12015 32.2926 -6.78354 1.91145 -55.8206 2.88369
LeftUpLeg  -22.2847 23.3084 8.21724
LeftLeg  38.885 4.92481 3.46087
LeftFoot  -1.86235 -0.00365871 -0.225111
LeftToes  -28.4772 1.85109e-006 5.31342e-008
Spine  3.27027 -3.65072 3.44514
Spine1  6.20461 -7.33229 6.39725
RightShoulder  0.0404882 1.23162 7.51071
RightArm  -50.5248 -24.4986 62.7602
RightForeArm  149.944 70.3096 149.899
RightHand  3.1631 -18.6247 -18.7392
LeftShoulder1  0.0235245 -0.587224 -6.31068
LeftArm  3.62709 20.9114 -58.3092
LeftForeArm  29.4043 -54.4404 -14.3196
LeftHand  0.0116506 1.18107 0.755934
HEad  -29.7951 45.5587 -28.4178
RightUpLeg  -12.6484 3.27852 -19.0205
RightLeg  30.3785 -10.3321 -5.15868
RightFoot  -0.741334 -0.00111574 0.205284
RightToes  -46.0239 -0.268304 -0.346561
182
root  6.27784 32.3442 -6.1539 3.22865 -48.4702 0.31946
LeftUpLeg  -23.7129 20.1135 8.32159
LeftLeg  40.3222 1.6522 1.22309
LeftFoot  -3.37832 -0.00419604 -0.142296
LeftToes  -26.1679 1.85109e-006 5.31342e-008
Spine  2.79899 -3.13892 3.05366
Spine1  5.28965 -6.26098 5.71286
RightShoulder  0.0381947 2.30408 6.53856
RightArm  -56.0266 -20.5648 65.6904
RightForeArm  152.822 69.4251 151.42
RightHand  2.43743 -18.7497 -14.31
LeftShoulder1  0.0239854 -0.838644 -6.29795
LeftArm  2.76953 22.997 -57.72
LeftForeArm  28.4127 -55.7506 -15.0554
LeftHand  0.0106463 1.47855 0.452947
HEad  -24.9865 39.982 -21.6081
RightUpLeg  -11.3471 0.307468 -17.665
RightLeg  35.9756 -13.5944 -8.45742
RightFoot  2.51289 0.0228669 -0.664833
RightToes  -46.9345 -0.276112 -0.350851
183
root  6.24952 32.5013 -5.58644 4.04955 -38.7068 -1.79654
LeftUpLeg  -24.3552 13.9863 8.77213
LeftLeg  39.4619 -1.10466 -0.801257
LeftFoot  -3.84397 0.00250072 0.0745113
LeftToes  -24.7619 1.85109e-006 5.31342e-008
Spine  2.06552 -2.27041 2.30557
Spine1  3.8582 -4.51791 4.43523
RightShoulder  0.0290854 4.19881 4.30914
RightArm  -65.157 -13.7991 69.7662
RightForeArm  153.251 70.2142 150.066
RightHand  1.9122 -18.8845 -11.087
LeftShoulder1  0.0266634 -0.984118 -6.31159
LeftArm  2.84262 22.3774 -57.0717
LeftForeArm  27.2679 -56.1085 -15.2654
LeftHand  0.0272584 2.01816 1.17349
HEad  -16.8803 30.1486 -10.4728
RightUpLeg  -9.0003 -4.20371 -16.0055
RightLeg  40.7434 -15.4531 -11.3888
RightFoot  7.53282 0.193999 -2.56848
RightToes  -49.4979 -0.298446 -0.362255
184
root  6.10706 32.752 -5.13296 3.89548 -28.4793 -3.37327
LeftUpLeg  -24.1423 6.71665 9.63169
LeftLeg  37.3743 -3.51522 -2.34579
LeftFoot  -3.1131 0.0056818 0.209083
LeftToes  -24.3139 1.85109e-006 5.31342e-008
Spine  1.68954 -0.470569 1.07356
Spine1  3.12059 -0.962336 2.22774
RightShoulder  0.0199938 5.86421 2.8988
RightArm  -75.1864 -0.656528 67.6498
RightForeArm  142.447 74.8773 138.498
RightHand  1.85572 -18.3785 -11.0603
LeftShoulder1  0.0365853 -0.84016 -6.57495
LeftArm  3.53514 17.0916 -57.2613
LeftForeArm  24.7955 -54.0766 -14.1238
LeftHand  0.0622155 2.62817 2.33557
HEad  -10.5046 14.4632 1.20079
RightUpLeg  -6.10694 -7.76608 -14.1424
RightLeg  44.6195 -15.9143 -13.3938
RightFoot  14.3131 0.721613 -5.36466
RightToes  -51.3259 -0.314675 -0.369773
185
root  5.91718 33.0332 -4.71522 3.6732 -18.2641 -5.03076
LeftUpLeg  -24.143 0.960495 10.8062
LeftLeg  35.1537 -7.04444 -4.29765
LeftFoot  -1.75059 0.00347794 0.227634
LeftToes  -24.9443 1.85109e-006 5.31342e-008
Spine  1.63787 1.86942 -0.30626
Spine1  2.85055 3.79764 -0.498066
RightShoulder  0.0319761 6.37104 2.91662
RightArm  -81.2886 17.1897 58.3993
RightForeArm  102.1 79.742 99.5807
RightHand  2.74558 -20.197 -14.9522
LeftShoulder1  0.0560386 -1.45373 -6.58695
LeftArm  3.7451 10.4467 -58.5658
LeftForeArm  22.3497 -51.0482 -12.6247
LeftHand  0.0714809 2.8805 2.46656
HEad  -9.38633 -3.35927 9.96595
RightUpLeg  -3.54864 -10.3838 -11.7422
RightLeg  47.5583 -14.4023 -13.4733
RightFoot  21.0896 1.4476 -7.38735
RightToes  -50.6346 -0.30851 -0.366991
